<?xml version="1.0" encoding="UTF-8" standalone="no"?>
<svg xmlns="http://www.w3.org/2000/svg" height="64" viewBox="0 0 135.827 135.788" width="64">
 <path fill="#5471AF" d="M135.83,67.871c0,34.604-27.143,64.467-61.629,67.638-34.499,3.174-66.781-21.087-73.092-55.204-6.313-34.11,14.978-68.471,48.406-77.846,33.44-9.377,69.573,8.831,81.906,41.291,2.92,7.688,4.41,15.896,4.41,24.12"/>
 <radialGradient id="XMLID_2_" gradientUnits="userSpaceOnUse" cy="67.871" cx="67.899" r="63.123">
  <stop stop-color="#D4E4F7" offset="0"/>
  <stop stop-color="#7FB5F7" offset="1"/>
 </radialGradient>
 <path fill='url(#XMLID_2_)' d="M131.02,67.871c0,34.401-28.723,63.123-63.123,63.123-34.401,0-63.124-28.722-63.124-63.123,0-34.4,28.723-63.124,63.124-63.124,34.403,0.004,63.123,28.727,63.123,63.128"/>
 <path fill="#68A0F2" d="M124.94,43.335c5.099,29.727-12.656,59.589-41.206,69.318-30.288,10.32-64.361-4.93-77.027-34.262,6.085,35.498,42.584,58.834,77.361,49.449,35.902-9.69,55.672-50.267,40.872-84.505"/>
 <path fill="#B3E7FC" d="M107.32,39.85c-8.729,1.806-18.779-10.562-26.351-13.708-14.143-5.879-31.808-3.149-44.617,4.855-13.551,8.467-23.188,24.73-24.672,40.694-0.003,0.046-0.005,0.055,0,0.024,0.999-9.667,0.324-18.755,4.003-28.1,6.101-15.49,19.292-27.619,35.2-32.492,16.444-5.037,34.427-1.832,48.593,7.769,4.384,2.967,21.224,18.19,7.844,20.958"/>
 <path fill="#FFF" d="M69.685,35.486v12.89c0,5.086-0.323,4.511,4.709,4.511,6.503,0,26.144-3.574,26.144,6.791,0,6.436,3.475,25.46-6.689,25.46-2.913,0-24.163-0.7-24.163,0.648v14.9c0,4.555-4.701,8.931-8.864,4.78-6.379-6.358-12.759-12.717-19.14-19.075-3.965-3.952-19.588-15.04-12.936-21.721,4.872-6.647,12.335-12.346,18.15-18.164,3.989-3.991,7.979-7.984,11.966-11.975,2.761-2.769,10.821-5.819,10.821,0.951"/>
 <path fill="#5471AF" d="M60.233,31.892c-6.05,6.056-12.101,12.11-18.151,18.166-4.234,4.238-17.7,13.58-15.815,20.837,0.745,2.877,3.727,5.113,5.742,7.12,4.054,4.041,8.11,8.083,12.164,12.125,3.811,3.797,7.62,7.594,11.429,11.391,2.143,2.137,4.665,5.645,7.856,6.168,7.33,1.203,7.123-5.902,7.123-10.802v-8.576c0-2.647,0.09-2.287,2.676-2.287,6.774,0,28.177,3.799,28.177-7.279,0-6.611,3.569-26.763-7.137-26.763-4.1-0.56-8.663,0-12.796,0-3.678,0-10.92,1.972-10.92-2.336v-12.606c0.004-5.077-5.971-9.542-10.344-5.159m34.063,52.349h-25.397c0.284,0,2.178,30.229-7.4,20.636-1.984-1.163-3.804-3.791-5.417-5.399-4.243-4.229-8.488-8.458-12.731-12.688-3.485-3.474-19.983-15.448-13.971-21.484,4.579-6.682,12.438-12.448,18.149-18.164,3.366-3.368,13.964-18.417,20.001-14.027,4.425,3.219-2.322,20.669,2.885,20.669h15.464c3.615,0,10.226-1.227,12.731,2.189,2.454,3.345,1.032,10.729,1.032,14.518,0,4.409,1.588,13.735-5.346,13.747"/>
</svg>
